 <?xml version="1.0" encoding="UTF-8"?>
<svg xmlns="http://www.w3.org/2000/svg" xmlns:xlink="http://www.w3.org/1999/xlink" width="0" height="0">
<symbol id="close-bnt" width="1024" height="1024" viewBox="0 0 1024 1024"><g></g><path d="M290.56 9.344c5.997-5.982 14.121-9.342 22.592-9.344h397.696c8.469 0.002 16.593 3.362 22.592 9.344l281.216 281.216c5.982 5.997 9.344 14.121 9.344 22.592v397.696c0 8.469-3.362 16.593-9.344 22.592l-281.216 281.216c-5.999 5.982-14.123 9.344-22.592 9.344h-397.696c-8.471 0-16.595-3.362-22.592-9.344l-281.216-281.216c-5.982-5.999-9.342-14.123-9.344-22.592v-397.696c0.002-8.471 3.362-16.595 9.344-22.592l281.216-281.216zM326.4 64l-262.4 262.4v371.2l262.4 262.4h371.2l262.4-262.4v-371.2l-262.4-262.4h-371.2z"></path><path d="M297.344 297.344c2.973-2.98 6.504-5.344 10.391-6.958s8.055-2.444 12.265-2.444c4.209 0 8.377 0.83 12.265 2.444s7.419 3.977 10.391 6.958l169.344 169.408 169.344-169.408c2.974-2.975 6.507-5.335 10.394-6.946s8.055-2.439 12.262-2.439c4.207 0 8.375 0.829 12.262 2.439s7.42 3.971 10.394 6.946c2.974 2.975 5.333 6.507 6.946 10.394 1.609 3.887 2.436 8.054 2.436 12.262s-0.828 8.374-2.436 12.261c-1.613 3.887-3.972 7.42-6.946 10.395l-169.408 169.344 169.408 169.344c2.974 2.974 5.333 6.507 6.946 10.394 1.609 3.887 2.436 8.055 2.436 12.262s-0.828 8.375-2.436 12.262c-1.613 3.887-3.972 7.42-6.946 10.394s-6.507 5.333-10.394 6.946c-3.887 1.609-8.055 2.436-12.262 2.436s-8.375-0.828-12.262-2.436c-3.887-1.613-7.42-3.972-10.394-6.946l-169.344-169.408-169.344 169.408c-2.975 2.974-6.508 5.333-10.395 6.946-3.887 1.609-8.054 2.436-12.261 2.436s-8.374-0.828-12.262-2.436c-3.887-1.613-7.419-3.972-10.394-6.946s-5.335-6.507-6.946-10.394c-1.61-3.887-2.439-8.055-2.439-12.262s0.829-8.375 2.439-12.262c1.61-3.887 3.971-7.42 6.946-10.394l169.408-169.344-169.408-169.344c-2.98-2.973-5.344-6.504-6.958-10.391s-2.444-8.055-2.444-12.265c0-4.209 0.83-8.377 2.444-12.265s3.977-7.419 6.958-10.391z"></path></symbol></svg>